<svg id="Email" xmlns="http://www.w3.org/2000/svg" width="599.592" height="45" viewBox="-315 10 1230 45">
  <path id="Path_133" data-name="Path 133" d="M-276.276-67.2h-10v55.86a1.99,1.99,0,0,1-2.016,2.016A2.044,2.044,0,0,1-290.3-11.34V-27.384h-9.912v15.876A12.016,12.016,0,0,0-288.288.84a12.033,12.033,0,0,0,12.012-12.348Zm12.684,55.86h4.7L-258.3,0h10.584l-6.972-67.2h-12.348L-273.84,0h9.324Zm4.116-10.248h-3.276l1.932-22.932Zm53.76-45.612h-15.456L-225.2-35.7l-3.78-31.5h-16.128V0h9.324V-45.36L-229.656,0h6.8l6.8-45.36V0h10.332Zm24.948,0H-201.18V0h20.412V-10.248h-10V-29.736h6.552V-39.984h-6.552V-57.792h10ZM-153.3-14.7c0-6.468-4.452-13.776-8.316-21-4.284-8.064-6.552-12.768-6.552-19.572A2.807,2.807,0,0,1-165.4-58.3c1.344,0,2.268,1.008,2.268,3.024v9.408h9.492v-9.828c0-6.8-4.956-12.348-11.76-12.348-8.316,0-12.684,6.384-12.684,15.54,0,6.888,3.78,14.532,7.476,21.42,3.612,6.552,7.392,12.348,7.392,18.564,0,2.268-.924,3.612-2.94,3.612s-3.108-1.764-3.108-3.612v-8.82h-9.492v9.828c0,6.8,5.208,12.348,13.1,12.348S-153.3-6.132-153.3-14.7Zm55.356,8.988-4.032-5.964a28.245,28.245,0,0,1-15.2,4.368c-13.356,0-23.688-11.508-23.688-26.292,0-14.532,10.668-26.292,23.688-26.292,13.1,0,22.6,11.172,22.6,21.168,0,10.248-4.368,15.624-9.24,15.624-2.52,0-3.948-1.764-3.444-5.46l3.276-21.5h-9.492l-.336,2.184a6.285,6.285,0,0,0-5.544-3.024,9.128,9.128,0,0,0-8.652,7.476l-2.94,19.572a6.28,6.28,0,0,0,6.384,7.56c2.436,0,6.72-1.6,8.484-4.872.84,2.688,3.36,5.46,10.164,5.46,10.164,0,19.488-7.98,19.488-23.268,0-15.036-13.524-29.064-30.744-29.064-18.06,0-32.676,15.372-32.676,34.44,0,18.984,14.616,34.44,32.676,34.44A31.479,31.479,0,0,0-97.944-5.712ZM-114.912-40.4l-2.1,13.608a2.356,2.356,0,0,1-2.352,2.016,1.656,1.656,0,0,1-1.68-2.016l2.1-13.608a2.356,2.356,0,0,1,2.352-2.016A1.656,1.656,0,0,1-114.912-40.4Zm56.2-26.8h-10v55.86a1.99,1.99,0,0,1-2.016,2.016,2.044,2.044,0,0,1-2.016-2.016V-27.384h-9.912v15.876A12.016,12.016,0,0,0-70.728.84,12.033,12.033,0,0,0-58.716-11.508Zm15.54,39.228L-46.368-67.2H-56.616l8.4,67.2h9.576l8.484-67.2h-9.408ZM-28.14-67.2V0h12.684c4.956,0,11-2.856,11-11.424V-27.216c0-3.192-1.764-5.208-4.368-6.972,2.6-1.764,4.368-3.78,4.368-6.972V-55.776c0-8.568-6.048-11.424-11-11.424Zm10.332,57.036V-28.9H-16.3c1.092,0,1.764.756,1.764,2.688v13.356c0,1.932-.672,2.688-1.764,2.688Zm0-28.9V-56.952H-16.3c1.092,0,1.764.756,1.764,2.688v12.516c0,1.932-.672,2.688-1.764,2.688ZM9.156-67.2H-.756v55.692A12.016,12.016,0,0,0,11.172.84C18.06.84,22.68-4.7,22.68-11.508V-67.2H13.188v55.44a1.99,1.99,0,0,1-2.016,2.016A2.044,2.044,0,0,1,9.156-11.76ZM37.632,0V-67.2H27.3V0Zm15.12-67.2H42.42V0H62.832V-10.248H52.752Zm13.608,0V0H79.884C84.84,0,90.468-2.856,90.468-11.424V-55.776c0-8.568-5.628-11.424-10.584-11.424ZM76.692-10.164V-56.952H78.96c1.176,0,1.848.756,1.848,2.688v41.412c0,1.932-.672,2.688-1.848,2.688ZM118.356-14.7c0-6.468-4.452-13.776-8.316-21-4.284-8.064-6.552-12.768-6.552-19.572A2.807,2.807,0,0,1,106.26-58.3c1.344,0,2.268,1.008,2.268,3.024v9.408h9.492v-9.828c0-6.8-4.956-12.348-11.76-12.348-8.316,0-12.684,6.384-12.684,15.54,0,6.888,3.78,14.532,7.476,21.42,3.612,6.552,7.392,12.348,7.392,18.564,0,2.268-.924,3.612-2.94,3.612s-3.108-1.764-3.108-3.612v-8.82H92.9v9.828C92.9-4.7,98.112.84,106.008.84S118.356-6.132,118.356-14.7ZM121.548,0h9.492V-10.164h-9.492Zm23.6-11.76V-55.44a2.044,2.044,0,0,1,2.016-2.016,2.044,2.044,0,0,1,2.016,2.016v13.524H159.1V-55.692A12.016,12.016,0,0,0,147.168-68.04,12.016,12.016,0,0,0,135.24-55.692v44.184A12.016,12.016,0,0,0,147.168.84,12.016,12.016,0,0,0,159.1-11.508V-25.284h-9.912V-11.76a2.044,2.044,0,0,1-2.016,2.016A2.044,2.044,0,0,1,145.152-11.76Zm42,.252V-55.692A12.368,12.368,0,0,0,174.8-68.04a12.368,12.368,0,0,0-12.348,12.348v44.184A12.368,12.368,0,0,0,174.8.84,12.368,12.368,0,0,0,187.152-11.508ZM176.82-55.44v43.68A2.044,2.044,0,0,1,174.8-9.744a2.044,2.044,0,0,1-2.016-2.016V-55.44a2.044,2.044,0,0,1,2.016-2.016A2.044,2.044,0,0,1,176.82-55.44ZM230.748-67.2H215.292L211.26-35.7l-3.78-31.5H191.352V0h9.324V-45.36L206.808,0h6.8l6.8-45.36V0h10.332ZM235.284,0h9.492V-10.164h-9.492Zm22.344-11.34h4.7L262.92,0H273.5l-6.972-67.2H254.184L247.38,0H256.7Zm4.116-10.248h-3.276L260.4-44.52ZM285.852-67.2H275.94v55.692A12.016,12.016,0,0,0,287.868.84c6.888,0,11.508-5.544,11.508-12.348V-67.2h-9.492v55.44a1.99,1.99,0,0,1-2.016,2.016,2.044,2.044,0,0,1-2.016-2.016Z" transform="translate(300.216 68.04)" fill="#9b9b9b"/>
</svg>
