<svg xmlns="http://www.w3.org/2000/svg" width="601.65" height="50" viewBox="-315 0 1230 50">
  <path id="Path_132" data-name="Path 132" d="M-244.9,0V-28.56h-24.71v6.37h6.3c-.63,3.36-2.87,6.37-7.07,6.37-4.55,0-8.4-4.41-8.4-12.18,0-7.84,3.29-12.18,8.47-12.18a7.283,7.283,0,0,1,7.21,7.56h18.2c0-14.21-12.67-24.78-27.09-24.78A29.234,29.234,0,0,0-301.035-28a29.234,29.234,0,0,0,29.05,29.4c7,0,13.93-3.43,17.15-8.47l3.5,7.07Zm55.44-39.06V-56h-50.61V0h50.61V-16.87h-28.49v-5.74h13.86V-33.32h-13.86v-5.74ZM-129.605-56h-56.35v16.94h17.15V0h22.12V-39.06h17.08Zm45.57,56V-56h-22.12V0Zm24.15-24.57L-40.215,0h18.83V-56h-18.83v24.36L-59.045-56h-19.67V0h18.83ZM58.135-56H1.785v16.94h17.15V0h22.12V-39.06h17.08Zm3.5,28A29.234,29.234,0,0,0,90.685,1.4,29.234,29.234,0,0,0,119.735-28a29.234,29.234,0,0,0-29.05-29.4A29.234,29.234,0,0,0,61.635-28Zm29.05,13.02c-3.71,0-6.72-3.22-6.72-13.02s3.01-12.95,6.72-12.95S97.4-37.8,97.4-28,94.4-14.98,90.685-14.98Zm33.46-7.35c0,14.07,11.41,23.73,27.37,23.73,16.03,0,27.44-9.66,27.44-23.73V-56h-20.51v32.27c0,5.74-2.66,7.91-6.93,7.91s-6.86-2.17-6.86-7.91V-56h-20.51Zm114.52-.84h-18.27c-.7,5.18-4.34,7.35-7.21,7.35-3.78,0-7.56-3.43-7.56-12.18,0-8.68,3.78-12.18,7.56-12.18,2.94,0,6.58,2.17,7.28,7.56h18.2c-1.54-14.07-11.83-24.78-26.32-24.78A29.175,29.175,0,0,0,183.365-28a29.175,29.175,0,0,0,28.98,29.4C226.765,1.4,237.125-9.17,238.665-23.17Zm39.83-12.6h-13.09V-56h-22.12V0h22.12V-19.67H278.5V0h22.12V-56H278.5Z" transform="translate(301.035 57.4)" fill="#9b9b9b"/>
</svg>
