<svg id="Phone" xmlns="http://www.w3.org/2000/svg" width="599.76" height="45" viewBox="-315 10 1230 45">
  <path id="Path_134" data-name="Path 134" d="M-301.6-28a29.234,29.234,0,0,0,29.05,29.4A29.234,29.234,0,0,0-243.5-28a29.234,29.234,0,0,0-29.05-29.4A29.234,29.234,0,0,0-301.6-28Zm29.05,13.02c-3.71,0-6.72-3.22-6.72-13.02s3.01-12.95,6.72-12.95,6.72,3.15,6.72,12.95S-268.835-14.98-272.545-14.98ZM-209.755-56-240-22.75v12.74h27.37V0h22.12V-10.01h7.28V-24.43h-7.28V-56Zm-11.69,31.57,8.82-9.8v9.8Zm41.72-3.57a29.234,29.234,0,0,0,29.05,29.4A29.234,29.234,0,0,0-121.625-28a29.234,29.234,0,0,0-29.05-29.4A29.234,29.234,0,0,0-179.725-28Zm29.05,13.02c-3.71,0-6.72-3.22-6.72-13.02s3.01-12.95,6.72-12.95,6.72,3.15,6.72,12.95S-146.965-14.98-150.675-14.98Zm55.51-5.53h-22.05v1.05c0,10.36,10.01,20.86,27.79,20.86,16.94,0,27.65-7.84,27.65-18.83,0-11.06-7.7-18.9-21.28-18.9-5.67,0-8.54,1.12-11.69,3.08l.42-6.65h19.18c7.28,0,11.27-6.93,11.27-16.1h-50.61l-1.82,30.03,21.91,1.54a6.052,6.052,0,0,1,5.18-2.38A5.872,5.872,0,0,1-83.265-21a5.872,5.872,0,0,1-5.95,5.81A5.892,5.892,0,0,1-95.165-20.51Zm68.88-13.23V0h22.12V-56H-20.9c-1.4,4.83-8.47,9.59-17.99,9.59v12.67ZM30.9,1.4c17.64,0,28.98-13.72,28.98-29.4,0-17.85-12.46-29.4-28.98-29.4-15.61,0-27.65,8.12-27.65,19.18,0,10.43,7.84,17.01,20.02,17.01,7.91,0,11.83-2.8,13.72-5.67,0,6.86-1.89,12.11-6.72,12.11-2.66,0-4.2-1.05-5.11-2.73H4.515C5.145-7.49,14.875,1.4,30.9,1.4Zm-6.16-37.45a5.7,5.7,0,0,1,5.95-5.6c3.15,0,6.16,2.59,5.95,5.6a6.079,6.079,0,0,1-5.95,5.6A5.7,5.7,0,0,1,24.745-36.05ZM91.525,1.4c17.64,0,28.98-13.72,28.98-29.4,0-17.85-12.46-29.4-28.98-29.4-15.61,0-27.65,8.12-27.65,19.18,0,10.43,7.84,17.01,20.02,17.01,7.91,0,11.83-2.8,13.72-5.67,0,6.86-1.89,12.11-6.72,12.11-2.66,0-4.2-1.05-5.11-2.73H65.135C65.765-7.49,75.495,1.4,91.525,1.4Zm-6.16-37.45a5.7,5.7,0,0,1,5.95-5.6c3.15,0,6.16,2.59,5.95,5.6a6.079,6.079,0,0,1-5.95,5.6A5.7,5.7,0,0,1,85.365-36.05Zm58.31-.56v1.19h22.54v-1.19c0-2.73,2.31-4.27,5.39-4.27,3.29,0,5.32,1.61,5.32,3.5,0,1.68-.42,3.43-4.2,5.04-11.41,4.9-30.38,14.28-30.38,32.34h55.65V-16.87h-24.43c0-3.01,25.55-5.67,25.55-21.14,0-11.55-11.76-19.39-27.65-19.39C153.685-57.4,143.675-46.9,143.675-36.61ZM230.615,1.4c17.64,0,28.98-13.72,28.98-29.4,0-17.85-12.46-29.4-28.98-29.4-15.61,0-27.65,8.12-27.65,19.18,0,10.43,7.84,17.01,20.02,17.01,7.91,0,11.83-2.8,13.72-5.67,0,6.86-1.89,12.11-6.72,12.11-2.66,0-4.2-1.05-5.11-2.73h-20.65C204.855-7.49,214.585,1.4,230.615,1.4Zm-6.16-37.45a5.7,5.7,0,0,1,5.95-5.6c3.15,0,6.16,2.59,5.95,5.6a6.079,6.079,0,0,1-5.95,5.6A5.7,5.7,0,0,1,224.455-36.05Zm51.59,2.31V0h22.12V-56h-16.73c-1.4,4.83-8.47,9.59-17.99,9.59v12.67Z" transform="translate(301.595 57.4)" fill="#9b9b9b"/>
</svg>
