<svg xmlns="http://www.w3.org/2000/svg" xmlns:xlink="http://www.w3.org/1999/xlink" width="1280" height="800" viewBox="0 0 1280 800">
  <defs>
    <clipPath id="clip-HOME">
      <rect width="1280" height="800"/>
    </clipPath>
  </defs>
  <g id="HOME" clip-path="url(#clip-HOME)">
    <rect width="1280" height="800" fill="#262424"/>
    <path id="Path_127" data-name="Path 127" d="M185.165,24.287v132.9l-48.963,20.4-48.769-20.4v-81.6L0,99.869V211.007l136.2,59.066,136.2-59.066V0Z" transform="translate(504.297 38)" fill="#dedede"/>
    <path id="Path_128" data-name="Path 128" d="M107.691,14.125V91.419L79.215,103.284,50.851,91.419V43.958L0,58.083v64.637l79.215,34.353,79.215-34.353V0Z" transform="translate(1064.285 74.5)" fill="#262424"/>
    <circle id="Ellipse_1" data-name="Ellipse 1" cx="13.5" cy="13.5" r="13.5" transform="translate(1223 38)" fill="none"/>
    <g id="Group_33" data-name="Group 33" transform="translate(0 45)">
      <path id="Path_97" data-name="Path 97" d="M74.086,47.727V.85H43.28V45.767a9.223,9.223,0,0,1-9.661,9.961,9.223,9.223,0,0,1-9.638-9.961v-3.3H0v5.257c0,19.6,14.434,33.042,36.155,33.042S74.086,67.326,74.086,47.727Z" transform="translate(339 301.47)" fill="#dedede"/>
      <path id="Path_98" data-name="Path 98" d="M78.437,41.478,65.478.85H33.52L62.85,78.809H87.522L116.46.85H90.819Z" transform="translate(382.771 301.47)" fill="#dedede"/>
      <path id="Path_99" data-name="Path 99" d="M147.934,58.242A18.585,18.585,0,0,0,133.5,39.149c8.67-2.306,14.434-9.661,14.434-19.692S137.881.85,122.386.85H71.22V78.809h51.166C137.1,78.809,147.934,68.871,147.934,58.242Zm-33.042-2.905H102.026V47.312h12.866a4.012,4.012,0,0,1,3.989,3.989A4.081,4.081,0,0,1,114.892,55.336Zm0-22.92H102.026V24.438h12.866a3.989,3.989,0,1,1,0,7.978Z" transform="translate(432 301.47)" fill="#dedede"/>
      <path id="Path_100" data-name="Path 100" d="M183.042.85H154.473V45.767c0,8-3.689,11.022-9.638,11.022s-9.546-3.021-9.546-11.022V.85H106.72V47.727c0,19.6,15.887,33.042,38.115,33.042s38.207-13.443,38.207-33.042Z" transform="translate(478.356 301.47)" fill="#dedede"/>
      <rect id="Rectangle_31" data-name="Rectangle 31" width="30.806" height="77.982" transform="translate(668.5 302.32)" fill="#dedede"/>
      <path id="Path_101" data-name="Path 101" d="M227.7,55.336H190.276V.85H159.47V78.809H227.7Z" transform="translate(547.237 301.47)" fill="#dedede"/>
      <path id="Path_102" data-name="Path 102" d="M270.791,39.841C270.791,18.282,252.667.85,230.347.85H191.84V78.809h38.507C252.667,78.809,270.791,61.377,270.791,39.841Zm-48.145,15.5v-30.9h5.465c5.165,0,11.69,3.782,11.69,15.4s-6.525,15.5-11.69,15.5Z" transform="translate(589.506 301.47)" fill="#dedede"/>
      <path id="Path_103" data-name="Path 103" d="M304.354,54c0-18.446-20.084-23.588-34.218-26.609-7.609-1.66-13.535-3.113-13.535-6.917,0-3.021,3.989-4.473,9.546-4.473,4.081,0,10.722,1.637,11.69,9.062h23.4C301.242,10.722,286.323,0,265.94,0c-24.165,0-36.731,13.95-36.731,27.093,0,30.321,47.661,22.8,47.661,32.558,0,3.113-5.073,4.5-10.63,4.5-4.081,0-13.051-1.568-14.042-8.97H227.94c0,16.855,17.732,26.7,38.6,26.7C294.209,81.879,304.354,68.529,304.354,54Z" transform="translate(636.646 300.361)" fill="#dedede"/>
    </g>
    <g id="Group_32" data-name="Group 32" transform="translate(0 61)">
      <path id="Path_104" data-name="Path 104" d="M4.888,43.06,1.06,90.1H5.948l.53-8.531H9.707l.438,8.531H15.7L11.828,43.06ZM6.94,75.572l1.43-18.815L9.361,75.5Z" transform="translate(340.384 356.589)" fill="#dedede"/>
      <path id="Path_105" data-name="Path 105" d="M16.4,43.06H8.81V90.1H16.4c2.767,0,6.226-1.407,6.226-7.4V50.416C22.622,44.49,19.163,43.06,16.4,43.06Zm.83,39.568c0,1.36-.415,1.891-.991,1.891h-1.96V48.709h1.891c.576,0,.991.53.991,1.891Z" transform="translate(350.504 356.589)" fill="#dedede"/>
      <path id="Path_106" data-name="Path 106" d="M24.053,43.06H16.49V90.1h7.563c2.767,0,6.249-1.407,6.249-7.4V50.416C30.3,44.49,26.889,43.06,24.053,43.06Zm.83,39.568c0,1.36-.415,1.891-.991,1.891H21.955V48.709h1.937c.576,0,.991.53.991,1.891Z" transform="translate(360.533 356.589)" fill="#dedede"/>
      <rect id="Rectangle_32" data-name="Rectangle 32" width="5.534" height="47.038" transform="translate(394.87 399.649)" fill="#dedede"/>
      <path id="Path_107" data-name="Path 107" d="M28.16,49.24H32.1V90.1h5.465V49.24h3.643V43.06H28.16Z" transform="translate(375.772 356.589)" fill="#dedede"/>
      <rect id="Rectangle_33" data-name="Rectangle 33" width="5.534" height="47.038" transform="translate(420.51 399.649)" fill="#dedede"/>
      <path id="Path_108" data-name="Path 108" d="M46.493,42.81a7.425,7.425,0,0,0-6.917,8.047v32.1a7.079,7.079,0,1,0,14,0v-32.1a7.425,7.425,0,0,0-7.079-8.047Zm1.43,40.559c0,1.061-.53,1.706-1.43,1.706s-1.453-.646-1.453-1.706V50.442c0-1.038.53-1.706,1.453-1.706s1.43.669,1.43,1.706Z" transform="translate(390.573 356.262)" fill="#dedede"/>
      <path id="Path_109" data-name="Path 109" d="M57.534,69.162l-4.7-26.1H47.25V90.1h4.589V64.412L57.488,90.1h4.565V43.06H57.534Z" transform="translate(400.699 356.589)" fill="#dedede"/>
      <path id="Path_110" data-name="Path 110" d="M60.745,50.581a1.914,1.914,0,0,1,1.706-2.121c.761,0,1.637.692,1.637,2.121v7.171h5.119V51.457c0-4.773-2.813-8.647-6.641-8.647-5.05,0-7.356,3.874-7.356,9.223,0,4.888,3.067,12.29,5.119,17.063a32.42,32.42,0,0,1,3.482,14c0,1.522-.715,2.467-1.775,2.467S60.1,84.315,60.1,83.092v-6.41H55.05v5.765c0,4.75,2.7,8.647,7.1,8.647,2.836,0,7.171-1.706,7.171-9.062,0-4.934-2.306-11.045-4.934-17.04S60.745,56.806,60.745,50.581Z" transform="translate(410.885 356.262)" fill="#dedede"/>
      <rect id="Rectangle_34" data-name="Rectangle 34" width="5.004" height="6.226" transform="translate(483.966 440.461)" fill="#dedede"/>
      <path id="Path_111" data-name="Path 111" d="M87.62,72.234a5.788,5.788,0,0,0-3.228-4.888A5.6,5.6,0,0,0,87.5,62.48V51.066a7.4,7.4,0,0,0-7.747-8H70.88V90.1h7.194V70.6h.945c.991,0,1.522.807,1.522,1.868V82.817a31.2,31.2,0,0,0,.9,7.286h7.1a38.439,38.439,0,0,1-.945-7.863ZM80.38,62.065c0,1.36-.484,1.891-1.245,1.891H78.074v-13.7h1.061c.761,0,1.245.507,1.245,1.868Z" transform="translate(431.556 356.583)" fill="#dedede"/>
      <path id="Path_112" data-name="Path 112" d="M79.92,90.1h14.3V82.927H87.229V69.3h4.589V62.129H87.229V49.655h6.987V43.06H79.92Z" transform="translate(443.36 356.589)" fill="#dedede"/>
      <path id="Path_113" data-name="Path 113" d="M100.374,43.06V68.585L96.316,43.06H87.9V90.1h6.064V65.011L99.129,90.1h7.286V43.06Z" transform="translate(453.78 356.589)" fill="#dedede"/>
      <path id="Path_114" data-name="Path 114" d="M106.487,42.81a8.67,8.67,0,0,0-8.647,8.647v30.99a8.647,8.647,0,0,0,17.294,0V51.457a8.647,8.647,0,0,0-8.647-8.647Zm1.407,39.383a1.407,1.407,0,1,1-2.813,0V51.618a1.407,1.407,0,0,1,2.813,0Z" transform="translate(466.76 356.262)" fill="#dedede"/>
      <path id="Path_115" data-name="Path 115" d="M115.968,70.522,113.731,43.06H106.56L112.44,90.1h6.71l5.926-47.038H118.5Z" transform="translate(478.147 356.589)" fill="#dedede"/>
      <path id="Path_116" data-name="Path 116" d="M120.023,43.06,115.25,90.1h6.525l.646-7.932h3.3l.415,7.932h7.4L128.67,43.06Zm3,31.935,1.337-16.141L125.3,75Z" transform="translate(489.494 356.589)" fill="#dedede"/>
      <path id="Path_117" data-name="Path 117" d="M124.1,50.231h4.819V90.1h7.217V50.231h4.542V43.06H124.1Z" transform="translate(501.051 356.589)" fill="#dedede"/>
      <rect id="Rectangle_35" data-name="Rectangle 35" width="7.24" height="47.038" transform="translate(645.349 399.649)" fill="#dedede"/>
      <path id="Path_118" data-name="Path 118" d="M146.63,42.81a8.647,8.647,0,0,0-8.624,8.647v30.99a8.647,8.647,0,1,0,17.271,0V51.457a8.647,8.647,0,0,0-8.647-8.647Zm1.407,39.383a1.43,1.43,0,0,1-2.836,0V51.618a1.43,1.43,0,0,1,2.836,0Z" transform="translate(519.195 356.262)" fill="#dedede"/>
      <path id="Path_119" data-name="Path 119" d="M159.864,68.585,155.806,43.06H147.39V90.1h6.064V65.011L158.619,90.1h7.286V43.06h-6.041Z" transform="translate(531.463 356.589)" fill="#dedede"/>
      <path id="Path_120" data-name="Path 120" d="M164.3,51.757a1.96,1.96,0,0,1,1.937-2.121c.945,0,1.591.692,1.591,2.121v6.572h6.641V51.411a8.3,8.3,0,0,0-8.116-8.6c-5.811,0-8.877,4.473-8.877,10.883,0,4.819,2.652,10.169,5.234,14.988s5.188,8.647,5.188,12.982c0,1.591-.646,2.536-2.075,2.536a2.306,2.306,0,0,1-2.167-2.536V75.529H156.9v6.917a8.647,8.647,0,0,0,9.223,8.647c5.511,0,8.624-4.888,8.624-10.883,0-4.612-3.113-9.638-5.811-14.688C165.893,59.8,164.3,56.506,164.3,51.757Z" transform="translate(543.881 356.262)" fill="#dedede"/>
      <rect id="Rectangle_36" data-name="Rectangle 36" width="6.641" height="7.125" transform="translate(722.294 439.585)" fill="#dedede"/>
      <path id="Path_121" data-name="Path 121" d="M200.436,81.072V53.1c0-4.773-5.649-10.422-13.12-10.422S174.15,48.329,174.15,53.1V81.072c0,4.773,5.649,10.4,13.166,10.4a14.319,14.319,0,0,0,7.24-1.937,6.456,6.456,0,0,0,4.473,1.937,5.534,5.534,0,0,0,3.574-.876v-6c-1.729,0-2.306-.231-2.79-.738a7.148,7.148,0,0,0,.623-2.79Zm-10.93-3.712-2.306,3.09,1.476,1.407a2.444,2.444,0,0,1-1.291.392,2.052,2.052,0,0,1-2.306-2.006V53.909a2.306,2.306,0,0,1,4.427,0Z" transform="translate(566.406 356.092)" fill="#dedede"/>
      <path id="Path_122" data-name="Path 122" d="M203.153,43.06V79.815a2.239,2.239,0,0,1-4.473,0V43.06H187.75V81.175c0,4.75,5.626,9.8,13.166,9.8s12.567-5.05,12.567-9.8V43.06Z" transform="translate(584.165 356.589)" fill="#dedede"/>
      <path id="Path_123" data-name="Path 123" d="M207.522,43.06,200.42,90.1h9.569l.83-6.756h5.234l.53,6.756h11.16L220.457,43.06Zm4.612,30.759L214,58.947l1.176,14.872Z" transform="translate(600.71 356.589)" fill="#dedede"/>
      <path id="Path_124" data-name="Path 124" d="M224.644,43.06H213.83V90.1h21.283V80.875H224.644Z" transform="translate(618.221 356.589)" fill="#dedede"/>
      <rect id="Rectangle_37" data-name="Rectangle 37" width="10.883" height="47.038" transform="translate(858.429 399.649)" fill="#dedede"/>
      <path id="Path_125" data-name="Path 125" d="M232.2,51.43h7.471V90.1h10.814V51.43h7.171V43.06H232.2Z" transform="translate(642.208 356.589)" fill="#dedede"/>
      <path id="Path_126" data-name="Path 126" d="M263.26,43.06l-3.828,15.7-4.289-15.7H244.26l9.062,26.77V90.1h10.929V69.83l9.339-26.77Z" transform="translate(657.956 356.589)" fill="#dedede"/>
      <rect id="Rectangle_38" data-name="Rectangle 38" width="9.477" height="9.592" transform="translate(929.079 437.118)" fill="#dedede"/>
    </g>
    <line id="Line_10" data-name="Line 10" x2="602" transform="translate(339.5 749.5)" fill="none"/>
    <path id="Path_132" data-name="Path 132" d="M-244.9,0V-28.56h-24.71v6.37h6.3c-.63,3.36-2.87,6.37-7.07,6.37-4.55,0-8.4-4.41-8.4-12.18,0-7.84,3.29-12.18,8.47-12.18a7.283,7.283,0,0,1,7.21,7.56h18.2c0-14.21-12.67-24.78-27.09-24.78A29.234,29.234,0,0,0-301.035-28a29.234,29.234,0,0,0,29.05,29.4c7,0,13.93-3.43,17.15-8.47l3.5,7.07Zm55.44-39.06V-56h-50.61V0h50.61V-16.87h-28.49v-5.74h13.86V-33.32h-13.86v-5.74ZM-129.605-56h-56.35v16.94h17.15V0h22.12V-39.06h17.08Zm45.57,56V-56h-22.12V0Zm24.15-24.57L-40.215,0h18.83V-56h-18.83v24.36L-59.045-56h-19.67V0h18.83ZM58.135-56H1.785v16.94h17.15V0h22.12V-39.06h17.08Zm3.5,28A29.234,29.234,0,0,0,90.685,1.4,29.234,29.234,0,0,0,119.735-28a29.234,29.234,0,0,0-29.05-29.4A29.234,29.234,0,0,0,61.635-28Zm29.05,13.02c-3.71,0-6.72-3.22-6.72-13.02s3.01-12.95,6.72-12.95S97.4-37.8,97.4-28,94.4-14.98,90.685-14.98Zm33.46-7.35c0,14.07,11.41,23.73,27.37,23.73,16.03,0,27.44-9.66,27.44-23.73V-56h-20.51v32.27c0,5.74-2.66,7.91-6.93,7.91s-6.86-2.17-6.86-7.91V-56h-20.51Zm114.52-.84h-18.27c-.7,5.18-4.34,7.35-7.21,7.35-3.78,0-7.56-3.43-7.56-12.18,0-8.68,3.78-12.18,7.56-12.18,2.94,0,6.58,2.17,7.28,7.56h18.2c-1.54-14.07-11.83-24.78-26.32-24.78A29.175,29.175,0,0,0,183.365-28a29.175,29.175,0,0,0,28.98,29.4C226.765,1.4,237.125-9.17,238.665-23.17Zm39.83-12.6h-13.09V-56h-22.12V0h22.12V-19.67H278.5V0h22.12V-56H278.5Z" transform="translate(640 604)" fill="#9b9b9b"/>
    <g id="Email" transform="translate(339.784 621.96)">
      <path id="Path_133" data-name="Path 133" d="M-276.276-67.2h-10v55.86a1.99,1.99,0,0,1-2.016,2.016A2.044,2.044,0,0,1-290.3-11.34V-27.384h-9.912v15.876A12.016,12.016,0,0,0-288.288.84a12.033,12.033,0,0,0,12.012-12.348Zm12.684,55.86h4.7L-258.3,0h10.584l-6.972-67.2h-12.348L-273.84,0h9.324Zm4.116-10.248h-3.276l1.932-22.932Zm53.76-45.612h-15.456L-225.2-35.7l-3.78-31.5h-16.128V0h9.324V-45.36L-229.656,0h6.8l6.8-45.36V0h10.332Zm24.948,0H-201.18V0h20.412V-10.248h-10V-29.736h6.552V-39.984h-6.552V-57.792h10ZM-153.3-14.7c0-6.468-4.452-13.776-8.316-21-4.284-8.064-6.552-12.768-6.552-19.572A2.807,2.807,0,0,1-165.4-58.3c1.344,0,2.268,1.008,2.268,3.024v9.408h9.492v-9.828c0-6.8-4.956-12.348-11.76-12.348-8.316,0-12.684,6.384-12.684,15.54,0,6.888,3.78,14.532,7.476,21.42,3.612,6.552,7.392,12.348,7.392,18.564,0,2.268-.924,3.612-2.94,3.612s-3.108-1.764-3.108-3.612v-8.82h-9.492v9.828c0,6.8,5.208,12.348,13.1,12.348S-153.3-6.132-153.3-14.7Zm55.356,8.988-4.032-5.964a28.245,28.245,0,0,1-15.2,4.368c-13.356,0-23.688-11.508-23.688-26.292,0-14.532,10.668-26.292,23.688-26.292,13.1,0,22.6,11.172,22.6,21.168,0,10.248-4.368,15.624-9.24,15.624-2.52,0-3.948-1.764-3.444-5.46l3.276-21.5h-9.492l-.336,2.184a6.285,6.285,0,0,0-5.544-3.024,9.128,9.128,0,0,0-8.652,7.476l-2.94,19.572a6.28,6.28,0,0,0,6.384,7.56c2.436,0,6.72-1.6,8.484-4.872.84,2.688,3.36,5.46,10.164,5.46,10.164,0,19.488-7.98,19.488-23.268,0-15.036-13.524-29.064-30.744-29.064-18.06,0-32.676,15.372-32.676,34.44,0,18.984,14.616,34.44,32.676,34.44A31.479,31.479,0,0,0-97.944-5.712ZM-114.912-40.4l-2.1,13.608a2.356,2.356,0,0,1-2.352,2.016,1.656,1.656,0,0,1-1.68-2.016l2.1-13.608a2.356,2.356,0,0,1,2.352-2.016A1.656,1.656,0,0,1-114.912-40.4Zm56.2-26.8h-10v55.86a1.99,1.99,0,0,1-2.016,2.016,2.044,2.044,0,0,1-2.016-2.016V-27.384h-9.912v15.876A12.016,12.016,0,0,0-70.728.84,12.033,12.033,0,0,0-58.716-11.508Zm15.54,39.228L-46.368-67.2H-56.616l8.4,67.2h9.576l8.484-67.2h-9.408ZM-28.14-67.2V0h12.684c4.956,0,11-2.856,11-11.424V-27.216c0-3.192-1.764-5.208-4.368-6.972,2.6-1.764,4.368-3.78,4.368-6.972V-55.776c0-8.568-6.048-11.424-11-11.424Zm10.332,57.036V-28.9H-16.3c1.092,0,1.764.756,1.764,2.688v13.356c0,1.932-.672,2.688-1.764,2.688Zm0-28.9V-56.952H-16.3c1.092,0,1.764.756,1.764,2.688v12.516c0,1.932-.672,2.688-1.764,2.688ZM9.156-67.2H-.756v55.692A12.016,12.016,0,0,0,11.172.84C18.06.84,22.68-4.7,22.68-11.508V-67.2H13.188v55.44a1.99,1.99,0,0,1-2.016,2.016A2.044,2.044,0,0,1,9.156-11.76ZM37.632,0V-67.2H27.3V0Zm15.12-67.2H42.42V0H62.832V-10.248H52.752Zm13.608,0V0H79.884C84.84,0,90.468-2.856,90.468-11.424V-55.776c0-8.568-5.628-11.424-10.584-11.424ZM76.692-10.164V-56.952H78.96c1.176,0,1.848.756,1.848,2.688v41.412c0,1.932-.672,2.688-1.848,2.688ZM118.356-14.7c0-6.468-4.452-13.776-8.316-21-4.284-8.064-6.552-12.768-6.552-19.572A2.807,2.807,0,0,1,106.26-58.3c1.344,0,2.268,1.008,2.268,3.024v9.408h9.492v-9.828c0-6.8-4.956-12.348-11.76-12.348-8.316,0-12.684,6.384-12.684,15.54,0,6.888,3.78,14.532,7.476,21.42,3.612,6.552,7.392,12.348,7.392,18.564,0,2.268-.924,3.612-2.94,3.612s-3.108-1.764-3.108-3.612v-8.82H92.9v9.828C92.9-4.7,98.112.84,106.008.84S118.356-6.132,118.356-14.7ZM121.548,0h9.492V-10.164h-9.492Zm23.6-11.76V-55.44a2.044,2.044,0,0,1,2.016-2.016,2.044,2.044,0,0,1,2.016,2.016v13.524H159.1V-55.692A12.016,12.016,0,0,0,147.168-68.04,12.016,12.016,0,0,0,135.24-55.692v44.184A12.016,12.016,0,0,0,147.168.84,12.016,12.016,0,0,0,159.1-11.508V-25.284h-9.912V-11.76a2.044,2.044,0,0,1-2.016,2.016A2.044,2.044,0,0,1,145.152-11.76Zm42,.252V-55.692A12.368,12.368,0,0,0,174.8-68.04a12.368,12.368,0,0,0-12.348,12.348v44.184A12.368,12.368,0,0,0,174.8.84,12.368,12.368,0,0,0,187.152-11.508ZM176.82-55.44v43.68A2.044,2.044,0,0,1,174.8-9.744a2.044,2.044,0,0,1-2.016-2.016V-55.44a2.044,2.044,0,0,1,2.016-2.016A2.044,2.044,0,0,1,176.82-55.44ZM230.748-67.2H215.292L211.26-35.7l-3.78-31.5H191.352V0h9.324V-45.36L206.808,0h6.8l6.8-45.36V0h10.332ZM235.284,0h9.492V-10.164h-9.492Zm22.344-11.34h4.7L262.92,0H273.5l-6.972-67.2H254.184L247.38,0H256.7Zm4.116-10.248h-3.276L260.4-44.52ZM285.852-67.2H275.94v55.692A12.016,12.016,0,0,0,287.868.84c6.888,0,11.508-5.544,11.508-12.348V-67.2h-9.492v55.44a1.99,1.99,0,0,1-2.016,2.016,2.044,2.044,0,0,1-2.016-2.016Z" transform="translate(300.216 68.04)" fill="#9b9b9b"/>
    </g>
    <g id="Phone" transform="translate(338.405 710.6)">
      <path id="Path_134" data-name="Path 134" d="M-301.6-28a29.234,29.234,0,0,0,29.05,29.4A29.234,29.234,0,0,0-243.5-28a29.234,29.234,0,0,0-29.05-29.4A29.234,29.234,0,0,0-301.6-28Zm29.05,13.02c-3.71,0-6.72-3.22-6.72-13.02s3.01-12.95,6.72-12.95,6.72,3.15,6.72,12.95S-268.835-14.98-272.545-14.98ZM-209.755-56-240-22.75v12.74h27.37V0h22.12V-10.01h7.28V-24.43h-7.28V-56Zm-11.69,31.57,8.82-9.8v9.8Zm41.72-3.57a29.234,29.234,0,0,0,29.05,29.4A29.234,29.234,0,0,0-121.625-28a29.234,29.234,0,0,0-29.05-29.4A29.234,29.234,0,0,0-179.725-28Zm29.05,13.02c-3.71,0-6.72-3.22-6.72-13.02s3.01-12.95,6.72-12.95,6.72,3.15,6.72,12.95S-146.965-14.98-150.675-14.98Zm55.51-5.53h-22.05v1.05c0,10.36,10.01,20.86,27.79,20.86,16.94,0,27.65-7.84,27.65-18.83,0-11.06-7.7-18.9-21.28-18.9-5.67,0-8.54,1.12-11.69,3.08l.42-6.65h19.18c7.28,0,11.27-6.93,11.27-16.1h-50.61l-1.82,30.03,21.91,1.54a6.052,6.052,0,0,1,5.18-2.38A5.872,5.872,0,0,1-83.265-21a5.872,5.872,0,0,1-5.95,5.81A5.892,5.892,0,0,1-95.165-20.51Zm68.88-13.23V0h22.12V-56H-20.9c-1.4,4.83-8.47,9.59-17.99,9.59v12.67ZM30.9,1.4c17.64,0,28.98-13.72,28.98-29.4,0-17.85-12.46-29.4-28.98-29.4-15.61,0-27.65,8.12-27.65,19.18,0,10.43,7.84,17.01,20.02,17.01,7.91,0,11.83-2.8,13.72-5.67,0,6.86-1.89,12.11-6.72,12.11-2.66,0-4.2-1.05-5.11-2.73H4.515C5.145-7.49,14.875,1.4,30.9,1.4Zm-6.16-37.45a5.7,5.7,0,0,1,5.95-5.6c3.15,0,6.16,2.59,5.95,5.6a6.079,6.079,0,0,1-5.95,5.6A5.7,5.7,0,0,1,24.745-36.05ZM91.525,1.4c17.64,0,28.98-13.72,28.98-29.4,0-17.85-12.46-29.4-28.98-29.4-15.61,0-27.65,8.12-27.65,19.18,0,10.43,7.84,17.01,20.02,17.01,7.91,0,11.83-2.8,13.72-5.67,0,6.86-1.89,12.11-6.72,12.11-2.66,0-4.2-1.05-5.11-2.73H65.135C65.765-7.49,75.495,1.4,91.525,1.4Zm-6.16-37.45a5.7,5.7,0,0,1,5.95-5.6c3.15,0,6.16,2.59,5.95,5.6a6.079,6.079,0,0,1-5.95,5.6A5.7,5.7,0,0,1,85.365-36.05Zm58.31-.56v1.19h22.54v-1.19c0-2.73,2.31-4.27,5.39-4.27,3.29,0,5.32,1.61,5.32,3.5,0,1.68-.42,3.43-4.2,5.04-11.41,4.9-30.38,14.28-30.38,32.34h55.65V-16.87h-24.43c0-3.01,25.55-5.67,25.55-21.14,0-11.55-11.76-19.39-27.65-19.39C153.685-57.4,143.675-46.9,143.675-36.61ZM230.615,1.4c17.64,0,28.98-13.72,28.98-29.4,0-17.85-12.46-29.4-28.98-29.4-15.61,0-27.65,8.12-27.65,19.18,0,10.43,7.84,17.01,20.02,17.01,7.91,0,11.83-2.8,13.72-5.67,0,6.86-1.89,12.11-6.72,12.11-2.66,0-4.2-1.05-5.11-2.73h-20.65C204.855-7.49,214.585,1.4,230.615,1.4Zm-6.16-37.45a5.7,5.7,0,0,1,5.95-5.6c3.15,0,6.16,2.59,5.95,5.6a6.079,6.079,0,0,1-5.95,5.6A5.7,5.7,0,0,1,224.455-36.05Zm51.59,2.31V0h22.12V-56h-16.73c-1.4,4.83-8.47,9.59-17.99,9.59v12.67Z" transform="translate(301.595 57.4)" fill="#9b9b9b"/>
    </g>
    <line id="Line_11" data-name="Line 11" x2="1256" transform="translate(12 331.5)" fill="none" stroke="#dedede" stroke-miterlimit="10" stroke-width="2"/>
    <line id="Line_17" data-name="Line 17" x2="1256" transform="translate(12 18.5)" fill="none" stroke="#dedede" stroke-miterlimit="10" stroke-width="2"/>
    <line id="Line_13" data-name="Line 13" x2="1256" transform="translate(12 442.5)" fill="none" stroke="#dedede" stroke-miterlimit="10" stroke-width="2"/>
    <line id="Line_12" data-name="Line 12" x2="1256" transform="translate(12 528.5)" fill="none" stroke="#dedede" stroke-miterlimit="10" stroke-width="2"/>
    <line id="Line_14" data-name="Line 14" x2="1256" transform="translate(12 783.5)" fill="none" stroke="#dedede" stroke-miterlimit="10" stroke-width="2"/>
  </g>
</svg>
