<svg id="Email_MOB" data-name="Email MOB" xmlns="http://www.w3.org/2000/svg" width="349.762" height="44" viewBox="-10 0 375 44">
  <path id="Path_136" data-name="Path 136" d="M-161.161-39.2h-5.831V-6.615a1.161,1.161,0,0,1-1.176,1.176,1.192,1.192,0,0,1-1.176-1.176v-9.359h-5.782v9.261a7.009,7.009,0,0,0,6.958,7.2,7.019,7.019,0,0,0,7.007-7.2Zm7.4,32.585h2.744L-150.675,0h6.174l-4.067-39.2h-7.2L-159.74,0h5.439Zm2.4-5.978h-1.911l1.127-13.377ZM-120-39.2h-9.016l-2.352,18.375L-133.574-39.2h-9.408V0h5.439V-26.46L-133.966,0H-130l3.969-26.46V0H-120Zm14.553,0h-11.907V0h11.907V-5.978h-5.831V-17.346h3.822v-5.978h-3.822V-33.712h5.831ZM-89.425-8.575c0-3.773-2.6-8.036-4.851-12.25-2.5-4.7-3.822-7.448-3.822-11.417a1.637,1.637,0,0,1,1.617-1.764c.784,0,1.323.588,1.323,1.764v5.488h5.537v-5.733a6.929,6.929,0,0,0-6.86-7.2c-4.851,0-7.4,3.724-7.4,9.065,0,4.018,2.205,8.477,4.361,12.495,2.107,3.822,4.312,7.2,4.312,10.829,0,1.323-.539,2.107-1.715,2.107A1.914,1.914,0,0,1-98.735-7.3v-5.145h-5.537v5.733c0,3.969,3.038,7.2,7.644,7.2S-89.425-3.577-89.425-8.575Zm32.291,5.243-2.352-3.479a16.476,16.476,0,0,1-8.869,2.548c-7.791,0-13.818-6.713-13.818-15.337,0-8.477,6.223-15.337,13.818-15.337,7.644,0,13.181,6.517,13.181,12.348,0,5.978-2.548,9.114-5.39,9.114-1.47,0-2.3-1.029-2.009-3.185L-60.662-29.2H-66.2l-.2,1.274a3.666,3.666,0,0,0-3.234-1.764,5.325,5.325,0,0,0-5.047,4.361l-1.715,11.417a3.663,3.663,0,0,0,3.724,4.41,6.174,6.174,0,0,0,4.949-2.842c.49,1.568,1.96,3.185,5.929,3.185,5.929,0,11.368-4.655,11.368-13.573,0-8.771-7.889-16.954-17.934-16.954-10.535,0-19.061,8.967-19.061,20.09C-87.416-8.526-78.89.49-68.355.49A18.363,18.363,0,0,0-57.134-3.332Zm-9.9-20.237-1.225,7.938a1.374,1.374,0,0,1-1.372,1.176.966.966,0,0,1-.98-1.176l1.225-7.938a1.374,1.374,0,0,1,1.372-1.176A.966.966,0,0,1-67.032-23.569ZM-34.251-39.2h-5.831V-6.615a1.161,1.161,0,0,1-1.176,1.176,1.192,1.192,0,0,1-1.176-1.176v-9.359h-5.782v9.261A7.009,7.009,0,0,0-41.258.49a7.019,7.019,0,0,0,7.007-7.2Zm9.065,22.883L-27.048-39.2h-5.978l4.9,39.2h5.586l4.949-39.2h-5.488ZM-16.415-39.2V0h7.4C-6.125,0-2.6-1.666-2.6-6.664v-9.212c0-1.862-1.029-3.038-2.548-4.067,1.519-1.029,2.548-2.2,2.548-4.067v-8.526c0-5-3.528-6.664-6.419-6.664Zm6.027,33.271V-16.856h.882c.637,0,1.029.441,1.029,1.568V-7.5c0,1.127-.392,1.568-1.029,1.568Zm0-16.856V-33.222h.882c.637,0,1.029.441,1.029,1.568v7.3c0,1.127-.392,1.568-1.029,1.568ZM5.341-39.2H-.441V-6.713A7.009,7.009,0,0,0,6.517.49c4.018,0,6.713-3.234,6.713-7.2V-39.2H7.693V-6.86A1.161,1.161,0,0,1,6.517-5.684,1.192,1.192,0,0,1,5.341-6.86ZM21.952,0V-39.2H15.925V0Zm8.82-39.2H24.745V0H36.652V-5.978h-5.88Zm7.938,0V0H46.6c2.891,0,6.174-1.666,6.174-6.664V-32.536c0-5-3.283-6.664-6.174-6.664ZM44.737-5.929V-33.222H46.06c.686,0,1.078.441,1.078,1.568V-7.5c0,1.127-.392,1.568-1.078,1.568Zm24.3-2.646c0-3.773-2.6-8.036-4.851-12.25-2.5-4.7-3.822-7.448-3.822-11.417a1.637,1.637,0,0,1,1.617-1.764c.784,0,1.323.588,1.323,1.764v5.488h5.537v-5.733a6.929,6.929,0,0,0-6.86-7.2c-4.851,0-7.4,3.724-7.4,9.065,0,4.018,2.2,8.477,4.361,12.495,2.107,3.822,4.312,7.2,4.312,10.829,0,1.323-.539,2.107-1.715,2.107A1.914,1.914,0,0,1,59.731-7.3v-5.145H54.194v5.733c0,3.969,3.038,7.2,7.644,7.2S69.041-3.577,69.041-8.575ZM70.9,0H76.44V-5.929H70.9ZM84.672-6.86V-32.34a1.192,1.192,0,0,1,1.176-1.176,1.192,1.192,0,0,1,1.176,1.176v7.889h5.782v-8.036a7.009,7.009,0,0,0-6.958-7.2,7.009,7.009,0,0,0-6.958,7.2V-6.713A7.009,7.009,0,0,0,85.848.49a7.009,7.009,0,0,0,6.958-7.2v-8.036H87.024V-6.86a1.192,1.192,0,0,1-1.176,1.176A1.192,1.192,0,0,1,84.672-6.86Zm24.5.147V-32.487a7.215,7.215,0,0,0-7.2-7.2,7.215,7.215,0,0,0-7.2,7.2V-6.713a7.215,7.215,0,0,0,7.2,7.2A7.215,7.215,0,0,0,109.172-6.713ZM103.145-32.34V-6.86a1.192,1.192,0,0,1-1.176,1.176,1.192,1.192,0,0,1-1.176-1.176V-32.34a1.192,1.192,0,0,1,1.176-1.176A1.192,1.192,0,0,1,103.145-32.34ZM134.6-39.2h-9.016l-2.352,18.375L121.03-39.2h-9.408V0h5.439V-26.46L120.638,0h3.969l3.969-26.46V0H134.6ZM137.249,0h5.537V-5.929h-5.537Zm13.034-6.615h2.744L153.37,0h6.174l-4.067-39.2h-7.2L144.3,0h5.439Zm2.4-5.978h-1.911L151.9-25.97ZM166.747-39.2h-5.782V-6.713a7.009,7.009,0,0,0,6.958,7.2c4.018,0,6.713-3.234,6.713-7.2V-39.2H169.1V-6.86a1.161,1.161,0,0,1-1.176,1.176,1.192,1.192,0,0,1-1.176-1.176Z" transform="translate(175.126 39.69)" fill="#9b9b9b"/>
</svg>
