<svg id="Phone_MOB" data-name="Phone MOB" xmlns="http://www.w3.org/2000/svg" width="348.718" height="38" viewBox="-10 0 375 38">
  <path id="Path_137" data-name="Path 137" d="M1.221-16.28A17,17,0,0,0,18.111.814,17,17,0,0,0,35-16.28,17,17,0,0,0,18.111-33.374,17,17,0,0,0,1.221-16.28Zm16.89,7.57c-2.157,0-3.907-1.872-3.907-7.57s1.75-7.529,3.907-7.529,3.907,1.831,3.907,7.529S20.269-8.71,18.111-8.71ZM54.619-32.56,37.037-13.227V-5.82H52.951V0H65.812V-5.82h4.233V-14.2H65.812V-32.56ZM47.822-14.2l5.128-5.7v5.7ZM72.08-16.28A17,17,0,0,0,88.97.814,17,17,0,0,0,105.861-16.28,17,17,0,0,0,88.97-33.374,17,17,0,0,0,72.08-16.28ZM88.97-8.71c-2.157,0-3.907-1.872-3.907-7.57s1.75-7.529,3.907-7.529,3.907,1.831,3.907,7.529S91.127-8.71,88.97-8.71Zm32.275-3.215h-12.82v.611c0,6.024,5.82,12.129,16.158,12.129,9.849,0,16.077-4.558,16.077-10.948,0-6.431-4.477-10.989-12.373-10.989a11.286,11.286,0,0,0-6.8,1.791l.244-3.866h11.152c4.233,0,6.553-4.029,6.553-9.361H110.012L108.954-15.1l12.739.9a3.519,3.519,0,0,1,3.012-1.384,3.414,3.414,0,0,1,3.46,3.378,3.414,3.414,0,0,1-3.46,3.378A3.426,3.426,0,0,1,121.245-11.925Zm40.049-7.692V0h12.861V-32.56h-9.727c-.814,2.808-4.925,5.576-10.46,5.576v7.367ZM194.546.814C204.8.814,211.4-7.163,211.4-16.28c0-10.378-7.245-17.094-16.85-17.094-9.076,0-16.076,4.721-16.076,11.152,0,6.064,4.558,9.89,11.64,9.89,4.6,0,6.878-1.628,7.977-3.3,0,3.989-1.1,7.041-3.907,7.041a3.05,3.05,0,0,1-2.971-1.587H179.2C179.568-4.355,185.226.814,194.546.814Zm-3.582-21.775a3.314,3.314,0,0,1,3.46-3.256,3.366,3.366,0,0,1,3.46,3.256,3.534,3.534,0,0,1-3.46,3.256A3.314,3.314,0,0,1,190.964-20.961ZM229.792.814c10.256,0,16.85-7.977,16.85-17.094,0-10.378-7.245-17.094-16.85-17.094-9.076,0-16.076,4.721-16.076,11.152,0,6.064,4.558,9.89,11.64,9.89,4.6,0,6.878-1.628,7.977-3.3,0,3.989-1.1,7.041-3.907,7.041a3.05,3.05,0,0,1-2.971-1.587H214.448C214.815-4.355,220.472.814,229.792.814Zm-3.582-21.775a3.314,3.314,0,0,1,3.46-3.256,3.366,3.366,0,0,1,3.46,3.256,3.534,3.534,0,0,1-3.46,3.256A3.314,3.314,0,0,1,226.211-20.961Zm33.9-.326v.692h13.105v-.692c0-1.587,1.343-2.483,3.134-2.483,1.913,0,3.093.936,3.093,2.035,0,.977-.244,1.994-2.442,2.93C270.37-15.954,259.34-10.5,259.34,0H291.7V-9.809h-14.2c0-1.75,14.855-3.3,14.855-12.291,0-6.716-6.838-11.274-16.077-11.274C265.934-33.374,260.114-27.269,260.114-21.286ZM310.663.814c10.256,0,16.85-7.977,16.85-17.094,0-10.378-7.245-17.094-16.85-17.094-9.076,0-16.076,4.721-16.076,11.152,0,6.064,4.558,9.89,11.64,9.89,4.6,0,6.878-1.628,7.977-3.3,0,3.989-1.1,7.041-3.907,7.041a3.05,3.05,0,0,1-2.971-1.587H295.319C295.686-4.355,301.343.814,310.663.814Zm-3.582-21.775a3.314,3.314,0,0,1,3.46-3.256A3.366,3.366,0,0,1,314-20.961a3.534,3.534,0,0,1-3.459,3.256A3.314,3.314,0,0,1,307.082-20.961Zm30,1.343V0h12.861V-32.56h-9.727c-.814,2.808-4.925,5.576-10.46,5.576v7.367Z" transform="translate(-1.221 33.374)" fill="#9b9b9b"/>
</svg>
