<svg xmlns="http://www.w3.org/2000/svg" width="348.098" height="38" viewBox="-10 0 375 38">
  <path id="Path_135" data-name="Path 135" d="M33.7,0V-16.524H19.4v3.686h3.645a4.1,4.1,0,0,1-4.09,3.686c-2.632,0-4.86-2.552-4.86-7.047,0-4.536,1.9-7.047,4.9-7.047a4.214,4.214,0,0,1,4.171,4.374H33.7c0-8.222-7.33-14.337-15.674-14.337A16.914,16.914,0,0,0,1.215-16.2,16.914,16.914,0,0,0,18.022.81c4.05,0,8.059-1.984,9.923-4.9L29.97,0ZM65.772-22.6v-9.8H36.491V0H65.772V-9.76H49.289v-3.321h8.019v-6.2H49.289V-22.6ZM100.4-32.4H67.8v9.8h9.923V0h12.8V-22.6H100.4ZM126.765,0V-32.4h-12.8V0Zm13.972-14.216L152.118,0h10.895V-32.4H152.118v14.094L141.223-32.4H129.843V0h10.895ZM209.021-32.4h-32.6v9.8h9.923V0h12.8V-22.6h9.882Zm2.025,16.2A16.914,16.914,0,0,0,227.853.81,16.914,16.914,0,0,0,244.661-16.2a16.914,16.914,0,0,0-16.808-17.01A16.914,16.914,0,0,0,211.046-16.2Zm16.807,7.533c-2.146,0-3.888-1.863-3.888-7.533s1.742-7.492,3.888-7.492,3.888,1.822,3.888,7.492S230-8.667,227.853-8.667Zm19.359-4.253c0,8.141,6.6,13.73,15.836,13.73,9.274,0,15.876-5.589,15.876-13.73V-32.4H267.057v18.671c0,3.321-1.539,4.576-4.009,4.576s-3.969-1.255-3.969-4.576V-32.4H247.212Zm66.258-.486H302.9c-.4,3-2.511,4.253-4.172,4.253-2.187,0-4.374-1.984-4.374-7.047,0-5.022,2.187-7.047,4.374-7.047,1.7,0,3.807,1.256,4.212,4.374h10.53c-.891-8.141-6.844-14.337-15.228-14.337A16.88,16.88,0,0,0,281.475-16.2,16.88,16.88,0,0,0,298.242.81C306.585.81,312.579-5.306,313.47-13.406Zm23.044-7.29h-7.573V-32.4h-12.8V0h12.8V-11.38h7.573V0h12.8V-32.4h-12.8Z" transform="translate(-1.215 33.21)" fill="#9b9b9b"/>
</svg>
