<svg xmlns="http://www.w3.org/2000/svg" xmlns:xlink="http://www.w3.org/1999/xlink" width="375" height="664" viewBox="0 0 375 664">
  <defs>
    <clipPath id="clip-path">
      <rect id="Rectangle_39" data-name="Rectangle 39" width="372" height="64" transform="translate(3)" fill="#dedede"/>
    </clipPath>
    <clipPath id="clip-iPhone_X_XS_HOME">
      <rect width="375" height="814"/>
    </clipPath>
  </defs>
  <g id="iPhone_X_XS_HOME" data-name="iPhone X/XS – HOME" clip-path="url(#clip-iPhone_X_XS_HOME)">
    <rect width="375" height="814" fill="#262424"/>
    <path id="Path_96" data-name="Path 96" d="M104.575,13.717V88.773L76.922,100.3,49.379,88.773V42.686L0,56.4v62.767l76.922,33.359,76.922-33.359V0Z" transform="translate(110.298 33.609)" fill="#dedede"/>
    <circle id="Ellipse_2" data-name="Ellipse 2" cx="12" cy="12" r="12" transform="translate(339 236)" fill="none"/>
    <g id="Group_26" data-name="Group 26" transform="translate(0 207)">
      <g id="Group_20" data-name="Group 20" transform="translate(13 98.735)">
        <path id="Path_104" data-name="Path 104" d="M10.687,43.06,1.06,161.365H13.354l1.334-21.457h8.119l1.1,21.457H37.885L28.143,43.06Zm5.161,81.77,3.6-47.322,2.494,47.148Z" transform="translate(-1.06 -41.61)" fill="#dedede"/>
        <path id="Path_105" data-name="Path 105" d="M27.89,43.06H8.81V161.365H27.89c6.959,0,15.658-3.538,15.658-18.616V61.56C43.548,46.656,34.849,43.06,27.89,43.06Zm2.088,99.516c0,3.422-1.044,4.755-2.494,4.755H22.554V57.268H27.31c1.45,0,2.494,1.334,2.494,4.755Z" transform="translate(36.134 -41.61)" fill="#dedede"/>
        <path id="Path_106" data-name="Path 106" d="M35.512,43.06H16.49V161.365H35.512c6.959,0,15.716-3.538,15.716-18.616V61.56C51.228,46.656,42.645,43.06,35.512,43.06ZM37.6,142.576c0,3.422-1.044,4.755-2.494,4.755H30.234V57.268h4.871c1.45,0,2.494,1.334,2.494,4.755Z" transform="translate(72.993 -41.61)" fill="#dedede"/>
        <rect id="Rectangle_32" data-name="Rectangle 32" width="13.918" height="118.305" transform="translate(134.369 1.45)" fill="#dedede"/>
        <path id="Path_107" data-name="Path 107" d="M28.16,58.6h9.917V161.365H51.821V58.6h9.163V43.06H28.16Z" transform="translate(129 -41.61)" fill="#dedede"/>
        <rect id="Rectangle_33" data-name="Rectangle 33" width="13.918" height="118.305" transform="translate(198.857 1.45)" fill="#dedede"/>
        <path id="Path_108" data-name="Path 108" d="M57.1,42.81A18.674,18.674,0,0,0,39.7,63.049v80.726a17.8,17.8,0,1,0,35.2,0V63.049A18.674,18.674,0,0,0,57.1,42.81Zm3.6,102.009c0,2.668-1.334,4.292-3.6,4.292s-3.654-1.624-3.654-4.292V62.006c0-2.61,1.334-4.291,3.654-4.291s3.6,1.682,3.6,4.291Z" transform="translate(183.399 -42.81)" fill="#dedede"/>
        <path id="Path_109" data-name="Path 109" d="M73.115,108.708,61.284,43.06H47.25V161.365H58.791v-64.6L73,161.365H84.481V43.06H73.115Z" transform="translate(220.618 -41.61)" fill="#dedede"/>
        <path id="Path_110" data-name="Path 110" d="M69.374,62.354a4.813,4.813,0,0,1,4.291-5.335c1.914,0,4.117,1.74,4.117,5.335V80.389H90.657V64.557c0-12-7.075-21.747-16.7-21.747-12.7,0-18.5,9.743-18.5,23.2,0,12.294,7.713,30.91,12.874,42.915a81.538,81.538,0,0,1,8.757,35.2c0,3.827-1.8,6.205-4.465,6.205s-4.871-3.132-4.871-6.205V128H55.05v14.5c0,11.947,6.785,21.747,17.862,21.747,7.133,0,18.036-4.291,18.036-22.791,0-12.41-5.8-27.779-12.41-42.857S69.374,78.012,69.374,62.354Z" transform="translate(258.052 -42.81)" fill="#dedede"/>
      </g>
    </g>
    <g id="Group_25" data-name="Group 25" transform="translate(0 207)">
      <g id="Group_21" data-name="Group 21" transform="translate(13 235.576)">
        <path id="Path_111" data-name="Path 111" d="M97.9,90.158a9.343,9.343,0,0,0-5.211-7.891,9.045,9.045,0,0,0,5.025-7.854V55.987A11.948,11.948,0,0,0,85.211,43.071H70.88v75.934H82.493V87.515H84.02c1.6,0,2.457,1.3,2.457,3.015v16.713a50.361,50.361,0,0,0,1.452,11.762H99.393a62.053,62.053,0,0,1-1.526-12.693ZM86.216,73.743c0,2.2-.782,3.052-2.01,3.052H82.493V54.685h1.712c1.228,0,2.01.819,2.01,3.015Z" transform="translate(-70.88 -42.14)" fill="#dedede"/>
        <path id="Path_112" data-name="Path 112" d="M79.92,118.994H103V107.418H91.72v-22h7.407V73.843H91.72V53.706H103V43.06H79.92Z" transform="translate(-46.271 -42.129)" fill="#dedede"/>
        <path id="Path_113" data-name="Path 113" d="M108.037,43.06V84.266L101.486,43.06H87.9v75.934h9.79V78.5l8.338,40.5H117.79V43.06Z" transform="translate(-24.547 -42.129)" fill="#dedede"/>
        <path id="Path_114" data-name="Path 114" d="M111.8,42.81A14,14,0,0,0,97.84,56.769V106.8a13.959,13.959,0,1,0,27.917,0V56.769A13.958,13.958,0,0,0,111.8,42.81Zm2.271,63.576a2.271,2.271,0,1,1-4.541,0V57.029a2.271,2.271,0,0,1,4.541,0Z" transform="translate(2.512 -42.81)" fill="#dedede"/>
        <path id="Path_115" data-name="Path 115" d="M121.747,87.392,118.136,43.06H106.56l9.492,75.934h10.832L136.45,43.06H125.841Z" transform="translate(26.251 -42.129)" fill="#dedede"/>
        <path id="Path_116" data-name="Path 116" d="M122.955,43.06l-7.705,75.934h10.534l1.042-12.8h5.323l.67,12.8h11.948L136.914,43.06Zm4.839,51.554,2.159-26.056,1.526,26.056Z" transform="translate(49.907 -42.129)" fill="#dedede"/>
        <path id="Path_117" data-name="Path 117" d="M124.1,54.636h7.78v64.358H143.53V54.636h7.333V43.06H124.1Z" transform="translate(73.999 -42.129)" fill="#dedede"/>
        <rect id="Rectangle_35" data-name="Rectangle 35" width="11.688" height="75.934" transform="translate(230.706 0.931)" fill="#dedede"/>
        <path id="Path_118" data-name="Path 118" d="M151.935,42.81a13.959,13.959,0,0,0-13.921,13.959V106.8a13.959,13.959,0,1,0,27.88,0V56.769A13.959,13.959,0,0,0,151.935,42.81Zm2.271,63.576a2.308,2.308,0,0,1-4.578,0V57.029a2.308,2.308,0,0,1,4.578,0Z" transform="translate(111.825 -42.81)" fill="#dedede"/>
        <path id="Path_119" data-name="Path 119" d="M167.528,84.266,160.976,43.06H147.39v75.934h9.79V78.5l8.338,40.5H177.28V43.06h-9.752Z" transform="translate(137.401 -42.129)" fill="#dedede"/>
        <path id="Path_120" data-name="Path 120" d="M168.849,57.252a3.164,3.164,0,0,1,3.127-3.424c1.526,0,2.568,1.117,2.568,3.424V67.861h10.72V56.694a13.4,13.4,0,0,0-13.1-13.884c-9.38,0-14.331,7.221-14.331,17.569,0,7.78,4.281,16.415,8.45,24.195s8.375,13.959,8.375,20.956c0,2.568-1.042,4.095-3.35,4.095a3.722,3.722,0,0,1-3.5-4.095v-9.9H156.9V106.8a13.959,13.959,0,0,0,14.889,13.959c8.9,0,13.921-7.891,13.921-17.569,0-7.445-5.025-15.559-9.38-23.711C171.417,70.243,168.849,64.92,168.849,57.252Z" transform="translate(163.289 -42.81)" fill="#dedede"/>
      </g>
    </g>
    <g id="Group_24" data-name="Group 24" transform="translate(0 207)">
      <path id="Path_121" data-name="Path 121" d="M222.183,112.834V61.725c0-8.722-10.323-19.045-23.975-19.045S174.15,53,174.15,61.725v51.109c0,8.722,10.323,19,24.059,19a26.165,26.165,0,0,0,13.23-3.539,11.8,11.8,0,0,0,8.174,3.539,10.113,10.113,0,0,0,6.531-1.6V119.281c-3.16,0-4.213-.421-5.1-1.348a13.061,13.061,0,0,0,1.138-5.1Zm-19.972-6.784L198,111.7l2.7,2.57a4.465,4.465,0,0,1-2.359.716,3.75,3.75,0,0,1-4.214-3.666V63.2a4.214,4.214,0,0,1,8.09,0Z" transform="translate(-161.15 287.269)" fill="#dedede"/>
      <path id="Path_122" data-name="Path 122" d="M215.9,43.06v67.162a4.091,4.091,0,0,1-8.174,0V43.06H187.75v69.648c0,8.68,10.281,17.907,24.059,17.907s22.963-9.227,22.963-17.907V43.06Z" transform="translate(-117.447 288.49)" fill="#dedede"/>
      <path id="Path_123" data-name="Path 123" d="M213.4,43.06,200.42,129.014h17.486l1.517-12.345h9.565l.969,12.345h20.393L237.035,43.06Zm8.427,56.208,3.413-27.177,2.149,27.177Z" transform="translate(-76.733 288.49)" fill="#dedede"/>
      <path id="Path_124" data-name="Path 124" d="M233.591,43.06H213.83v85.954h38.89V112.161H233.591Z" transform="translate(-33.64 288.49)" fill="#dedede"/>
      <rect id="Rectangle_37" data-name="Rectangle 37" width="19.887" height="85.954" transform="translate(228.392 331.55)" fill="#dedede"/>
      <path id="Path_125" data-name="Path 125" d="M232.2,58.355h13.652v70.66h19.761V58.355h13.1V43.06H232.2Z" transform="translate(25.391 288.49)" fill="#dedede"/>
      <path id="Path_126" data-name="Path 126" d="M278.979,43.06l-6.994,28.694L264.147,43.06H244.26l16.559,48.918v37.036h19.972V91.978L297.855,43.06Z" transform="translate(64.145 288.49)" fill="#dedede"/>
    </g>
    <line id="Line_4" data-name="Line 4" x2="349.5" transform="translate(12 203.5)" fill="none" stroke="#dedede" stroke-miterlimit="10" stroke-width="2"/>
    <line id="Line_18" data-name="Line 18" x2="349.5" transform="translate(12 18.5)" fill="none" stroke="#dedede" stroke-miterlimit="10" stroke-width="2"/>
    <line id="Line_16" data-name="Line 16" x2="349.5" transform="translate(12 287.5)" fill="none" stroke="#dedede" stroke-miterlimit="10" stroke-width="2"/>
    <line id="Line_8" data-name="Line 8" x2="349.5" transform="translate(12 644.5)" fill="none" stroke="#dedede" stroke-miterlimit="10" stroke-width="2"/>
    <!-- <line id="Line_15" data-name="Line 15" x2="349.5" transform="translate(12 800)" fill="none" stroke="#dedede" stroke-miterlimit="10" stroke-width="2"/> -->
    <!-- <path id="Path_135" data-name="Path 135" d="M33.7,0V-16.524H19.4v3.686h3.645a4.1,4.1,0,0,1-4.09,3.686c-2.632,0-4.86-2.552-4.86-7.047,0-4.536,1.9-7.047,4.9-7.047a4.214,4.214,0,0,1,4.171,4.374H33.7c0-8.222-7.33-14.337-15.674-14.337A16.914,16.914,0,0,0,1.215-16.2,16.914,16.914,0,0,0,18.022.81c4.05,0,8.059-1.984,9.923-4.9L29.97,0ZM65.772-22.6v-9.8H36.491V0H65.772V-9.76H49.289v-3.321h8.019v-6.2H49.289V-22.6ZM100.4-32.4H67.8v9.8h9.923V0h12.8V-22.6H100.4ZM126.765,0V-32.4h-12.8V0Zm13.972-14.216L152.118,0h10.895V-32.4H152.118v14.094L141.223-32.4H129.843V0h10.895ZM209.021-32.4h-32.6v9.8h9.923V0h12.8V-22.6h9.882Zm2.025,16.2A16.914,16.914,0,0,0,227.853.81,16.914,16.914,0,0,0,244.661-16.2a16.914,16.914,0,0,0-16.808-17.01A16.914,16.914,0,0,0,211.046-16.2Zm16.807,7.533c-2.146,0-3.888-1.863-3.888-7.533s1.742-7.492,3.888-7.492,3.888,1.822,3.888,7.492S230-8.667,227.853-8.667Zm19.359-4.253c0,8.141,6.6,13.73,15.836,13.73,9.274,0,15.876-5.589,15.876-13.73V-32.4H267.057v18.671c0,3.321-1.539,4.576-4.009,4.576s-3.969-1.255-3.969-4.576V-32.4H247.212Zm66.258-.486H302.9c-.4,3-2.511,4.253-4.172,4.253-2.187,0-4.374-1.984-4.374-7.047,0-5.022,2.187-7.047,4.374-7.047,1.7,0,3.807,1.256,4.212,4.374h10.53c-.891-8.141-6.844-14.337-15.228-14.337A16.88,16.88,0,0,0,281.475-16.2,16.88,16.88,0,0,0,298.242.81C306.585.81,312.579-5.306,313.47-13.406Zm23.044-7.29h-7.573V-32.4h-12.8V0h12.8V-11.38h7.573V0h12.8V-32.4h-12.8Z" transform="translate(12 696)" fill="#9b9b9b"/> -->
    <!-- <g id="Phone_MOB" data-name="Phone MOB" transform="translate(13.221 750.126)">
      <path id="Path_137" data-name="Path 137" d="M1.221-16.28A17,17,0,0,0,18.111.814,17,17,0,0,0,35-16.28,17,17,0,0,0,18.111-33.374,17,17,0,0,0,1.221-16.28Zm16.89,7.57c-2.157,0-3.907-1.872-3.907-7.57s1.75-7.529,3.907-7.529,3.907,1.831,3.907,7.529S20.269-8.71,18.111-8.71ZM54.619-32.56,37.037-13.227V-5.82H52.951V0H65.812V-5.82h4.233V-14.2H65.812V-32.56ZM47.822-14.2l5.128-5.7v5.7ZM72.08-16.28A17,17,0,0,0,88.97.814,17,17,0,0,0,105.861-16.28,17,17,0,0,0,88.97-33.374,17,17,0,0,0,72.08-16.28ZM88.97-8.71c-2.157,0-3.907-1.872-3.907-7.57s1.75-7.529,3.907-7.529,3.907,1.831,3.907,7.529S91.127-8.71,88.97-8.71Zm32.275-3.215h-12.82v.611c0,6.024,5.82,12.129,16.158,12.129,9.849,0,16.077-4.558,16.077-10.948,0-6.431-4.477-10.989-12.373-10.989a11.286,11.286,0,0,0-6.8,1.791l.244-3.866h11.152c4.233,0,6.553-4.029,6.553-9.361H110.012L108.954-15.1l12.739.9a3.519,3.519,0,0,1,3.012-1.384,3.414,3.414,0,0,1,3.46,3.378,3.414,3.414,0,0,1-3.46,3.378A3.426,3.426,0,0,1,121.245-11.925Zm40.049-7.692V0h12.861V-32.56h-9.727c-.814,2.808-4.925,5.576-10.46,5.576v7.367ZM194.546.814C204.8.814,211.4-7.163,211.4-16.28c0-10.378-7.245-17.094-16.85-17.094-9.076,0-16.076,4.721-16.076,11.152,0,6.064,4.558,9.89,11.64,9.89,4.6,0,6.878-1.628,7.977-3.3,0,3.989-1.1,7.041-3.907,7.041a3.05,3.05,0,0,1-2.971-1.587H179.2C179.568-4.355,185.226.814,194.546.814Zm-3.582-21.775a3.314,3.314,0,0,1,3.46-3.256,3.366,3.366,0,0,1,3.46,3.256,3.534,3.534,0,0,1-3.46,3.256A3.314,3.314,0,0,1,190.964-20.961ZM229.792.814c10.256,0,16.85-7.977,16.85-17.094,0-10.378-7.245-17.094-16.85-17.094-9.076,0-16.076,4.721-16.076,11.152,0,6.064,4.558,9.89,11.64,9.89,4.6,0,6.878-1.628,7.977-3.3,0,3.989-1.1,7.041-3.907,7.041a3.05,3.05,0,0,1-2.971-1.587H214.448C214.815-4.355,220.472.814,229.792.814Zm-3.582-21.775a3.314,3.314,0,0,1,3.46-3.256,3.366,3.366,0,0,1,3.46,3.256,3.534,3.534,0,0,1-3.46,3.256A3.314,3.314,0,0,1,226.211-20.961Zm33.9-.326v.692h13.105v-.692c0-1.587,1.343-2.483,3.134-2.483,1.913,0,3.093.936,3.093,2.035,0,.977-.244,1.994-2.442,2.93C270.37-15.954,259.34-10.5,259.34,0H291.7V-9.809h-14.2c0-1.75,14.855-3.3,14.855-12.291,0-6.716-6.838-11.274-16.077-11.274C265.934-33.374,260.114-27.269,260.114-21.286ZM310.663.814c10.256,0,16.85-7.977,16.85-17.094,0-10.378-7.245-17.094-16.85-17.094-9.076,0-16.076,4.721-16.076,11.152,0,6.064,4.558,9.89,11.64,9.89,4.6,0,6.878-1.628,7.977-3.3,0,3.989-1.1,7.041-3.907,7.041a3.05,3.05,0,0,1-2.971-1.587H295.319C295.686-4.355,301.343.814,310.663.814Zm-3.582-21.775a3.314,3.314,0,0,1,3.46-3.256A3.366,3.366,0,0,1,314-20.961a3.534,3.534,0,0,1-3.459,3.256A3.314,3.314,0,0,1,307.082-20.961Zm30,1.343V0h12.861V-32.56h-9.727c-.814,2.808-4.925,5.576-10.46,5.576v7.367Z" transform="translate(-1.221 33.374)" fill="#9b9b9b"/>
    </g> -->
    <g id="Mask_Group_1" data-name="Mask Group 1" transform="translate(0 211)" clip-path="url(#clip-path)">
      <g id="JVBuilds-logo" transform="translate(12 11)">
        <g id="Layer_1" data-name="Layer 1">
          <path id="Path_97" data-name="Path 97" d="M43.073,28.1V.85H25.163V26.965a5.362,5.362,0,0,1-5.617,5.791,5.362,5.362,0,0,1-5.6-5.791V25.048H0V28.1C0,39.5,8.392,47.315,21.02,47.315S43.073,39.5,43.073,28.1Z" transform="translate(0 0.289)" fill="#dedede"/>
          <path id="Path_98" data-name="Path 98" d="M59.635,24.471,52.1.85H33.52L50.572,46.175H64.917L81.741.85H66.834Z" transform="translate(11.416 0.289)" fill="#dedede"/>
          <path id="Path_99" data-name="Path 99" d="M115.821,34.217a10.805,10.805,0,0,0-8.392-11.1c5.041-1.341,8.392-5.617,8.392-11.449S109.976.85,100.968.85H71.22V46.175h29.748C109.521,46.175,115.821,40.4,115.821,34.217ZM96.611,32.528H89.13V27.863h7.48a2.333,2.333,0,0,1,2.319,2.319A2.373,2.373,0,0,1,96.611,32.528Zm0-13.325H89.13V14.564h7.48a2.319,2.319,0,1,1,0,4.638Z" transform="translate(24.256 0.289)" fill="#dedede"/>
          <path id="Path_100" data-name="Path 100" d="M151.093.85h-16.61V26.965c0,4.652-2.145,6.408-5.6,6.408s-5.55-1.756-5.55-6.408V.85H106.72V28.1c0,11.395,9.237,19.211,22.16,19.211S151.093,39.5,151.093,28.1Z" transform="translate(36.347 0.289)" fill="#dedede"/>
          <rect id="Rectangle_31" data-name="Rectangle 31" width="17.91" height="45.339" transform="translate(191.57 1.139)" fill="#dedede"/>
          <path id="Path_101" data-name="Path 101" d="M199.138,32.528H177.38V.85H159.47V46.175h39.668Z" transform="translate(54.313 0.289)" fill="#dedede"/>
          <path id="Path_102" data-name="Path 102" d="M237.742,23.519C237.742,10.985,227.2.85,214.228.85H191.84V46.175h22.388C227.2,46.175,237.742,36.04,237.742,23.519ZM209.75,32.528V14.564h3.177c3,0,6.8,2.2,6.8,8.955s-3.794,9.009-6.8,9.009Z" transform="translate(65.338 0.289)" fill="#dedede"/>
          <path id="Path_103" data-name="Path 103" d="M272.367,31.4c0-10.725-11.677-13.714-19.894-15.47-4.424-.965-7.869-1.81-7.869-4.022,0-1.756,2.319-2.6,5.55-2.6,2.373,0,6.234.952,6.8,5.269h13.607C270.557,6.234,261.884,0,250.033,0c-14.049,0-21.356,8.111-21.356,15.752,0,17.629,27.71,13.258,27.71,18.929,0,1.81-2.949,2.614-6.18,2.614-2.373,0-7.588-.912-8.164-5.215h-14.1c0,9.8,10.309,15.524,22.441,15.524C266.468,47.6,272.367,39.842,272.367,31.4Z" transform="translate(77.633)" fill="#dedede"/>
          <path id="Path_104-2" data-name="Path 104" d="M3.285,43.06,1.06,70.408H3.9l.308-4.96H6.087l.255,4.96H9.573L7.321,43.06Zm1.193,18.9L5.31,51.023l.576,10.9Z" transform="translate(0.361 14.666)" fill="#dedede"/>
          <path id="Path_105-2" data-name="Path 105" d="M13.221,43.06H8.81V70.408h4.411c1.609,0,3.62-.818,3.62-4.3V47.336C16.84,43.891,14.829,43.06,13.221,43.06Zm.483,23c0,.791-.241,1.1-.576,1.1H11.987V46.344h1.1c.335,0,.576.308.576,1.1Z" transform="translate(3.001 14.666)" fill="#dedede"/>
          <path id="Path_106-2" data-name="Path 106" d="M20.887,43.06h-4.4V70.408h4.4c1.609,0,3.633-.818,3.633-4.3V47.336C24.52,43.891,22.536,43.06,20.887,43.06Zm.483,23c0,.791-.241,1.1-.576,1.1H19.667V46.344h1.126c.335,0,.576.308.576,1.1Z" transform="translate(5.616 14.666)" fill="#dedede"/>
          <rect id="Rectangle_32-2" data-name="Rectangle 32" width="3.217" height="27.348" transform="translate(32.482 57.726)" fill="#dedede"/>
          <path id="Path_107-2" data-name="Path 107" d="M28.16,46.653h2.292V70.408H33.63V46.653h2.118V43.06H28.16Z" transform="translate(9.591 14.666)" fill="#dedede"/>
          <rect id="Rectangle_33-2" data-name="Rectangle 33" width="3.217" height="27.348" transform="translate(47.39 57.726)" fill="#dedede"/>
          <path id="Path_108-2" data-name="Path 108" d="M43.564,42.81a4.317,4.317,0,0,0-4.022,4.679V66.15a4.116,4.116,0,1,0,8.137,0V47.489a4.317,4.317,0,0,0-4.116-4.679Zm.831,23.581c0,.617-.308.992-.831.992s-.845-.375-.845-.992V47.247c0-.6.308-.992.845-.992s.831.389.831.992Z" transform="translate(13.451 14.58)" fill="#dedede"/>
          <path id="Path_109-2" data-name="Path 109" d="M53.229,58.235,50.494,43.06H47.25V70.408h2.668V55.474L53.2,70.408h2.654V43.06H53.229Z" transform="translate(16.093 14.666)" fill="#dedede"/>
          <path id="Path_110-2" data-name="Path 110" d="M58.361,47.328a1.113,1.113,0,0,1,.992-1.233c.442,0,.952.4.952,1.233V51.5h2.976v-3.66c0-2.775-1.636-5.027-3.861-5.027-2.936,0-4.276,2.252-4.276,5.362,0,2.842,1.783,7.145,2.976,9.92a18.849,18.849,0,0,1,2.024,8.137c0,.885-.416,1.434-1.032,1.434s-1.126-.724-1.126-1.434V62.5H55.05v3.351c0,2.762,1.568,5.027,4.129,5.027,1.649,0,4.169-.992,4.169-5.269,0-2.869-1.341-6.421-2.869-9.907S58.361,50.947,58.361,47.328Z" transform="translate(18.749 14.58)" fill="#dedede"/>
          <rect id="Rectangle_34" data-name="Rectangle 34" width="2.909" height="3.62" transform="translate(84.283 81.454)" fill="#dedede"/>
          <path id="Path_111-2" data-name="Path 111" d="M80.613,60.02a3.365,3.365,0,0,0-1.877-2.842,3.258,3.258,0,0,0,1.81-2.829V47.713a4.3,4.3,0,0,0-4.5-4.652H70.88V70.409h4.183V59.068h.55c.576,0,.885.469.885,1.086v6.019a18.138,18.138,0,0,0,.523,4.236h4.129a22.349,22.349,0,0,1-.55-4.571ZM76.4,54.108c0,.791-.282,1.1-.724,1.1h-.617V47.244h.617c.442,0,.724.295.724,1.086Z" transform="translate(24.141 14.664)" fill="#dedede"/>
          <path id="Path_112-2" data-name="Path 112" d="M79.92,70.408h8.312V66.239H84.17V58.316h2.668V54.147H84.17V46.894h4.062V43.06H79.92Z" transform="translate(27.22 14.666)" fill="#dedede"/>
          <path id="Path_113-2" data-name="Path 113" d="M95.153,43.06V57.9L92.793,43.06H87.9V70.408h3.526V55.822l3,14.586h4.236V43.06Z" transform="translate(29.937 14.666)" fill="#dedede"/>
          <path id="Path_114-2" data-name="Path 114" d="M102.867,42.81a5.041,5.041,0,0,0-5.027,5.027V65.855a5.027,5.027,0,1,0,10.054,0V47.837a5.027,5.027,0,0,0-5.027-5.027Zm.818,22.9a.818.818,0,1,1-1.635,0V47.931a.818.818,0,0,1,1.636,0Z" transform="translate(33.323 14.58)" fill="#dedede"/>
          <path id="Path_115-2" data-name="Path 115" d="M112.03,59.026l-1.3-15.966H106.56l3.419,27.348h3.9l3.445-27.348H113.5Z" transform="translate(36.293 14.666)" fill="#dedede"/>
          <path id="Path_116-2" data-name="Path 116" d="M118.025,43.06,115.25,70.408h3.794l.375-4.612h1.917l.241,4.612h4.3L123.052,43.06Zm1.743,18.567.778-9.384.55,9.384Z" transform="translate(39.252 14.666)" fill="#dedede"/>
          <path id="Path_117-2" data-name="Path 117" d="M124.1,47.229h2.8V70.408h4.2V47.229h2.641V43.06H124.1Z" transform="translate(42.267 14.666)" fill="#dedede"/>
          <rect id="Rectangle_35-2" data-name="Rectangle 35" width="4.209" height="27.348" transform="translate(178.11 57.726)" fill="#dedede"/>
          <path id="Path_118-2" data-name="Path 118" d="M143.016,42.81A5.027,5.027,0,0,0,138,47.837V65.855a5.027,5.027,0,1,0,10.041,0V47.837a5.027,5.027,0,0,0-5.027-5.027Zm.818,22.9a.831.831,0,0,1-1.649,0V47.931a.831.831,0,0,1,1.649,0Z" transform="translate(46.999 14.58)" fill="#dedede"/>
          <path id="Path_119-2" data-name="Path 119" d="M154.643,57.9l-2.359-14.84H147.39V70.408h3.526V55.822l3,14.586h4.236V43.06h-3.512Z" transform="translate(50.199 14.666)" fill="#dedede"/>
          <path id="Path_120-2" data-name="Path 120" d="M161.2,48.011a1.139,1.139,0,0,1,1.126-1.233c.55,0,.925.4.925,1.233v3.821h3.861V47.81a4.826,4.826,0,0,0-4.719-5c-3.378,0-5.161,2.6-5.161,6.328,0,2.8,1.542,5.912,3.043,8.714s3.016,5.027,3.016,7.547c0,.925-.375,1.475-1.207,1.475a1.341,1.341,0,0,1-1.26-1.475V61.833H156.9v4.022a5.027,5.027,0,0,0,5.362,5.027c3.2,0,5.014-2.842,5.014-6.328,0-2.681-1.81-5.6-3.378-8.54C162.128,52.69,161.2,50.773,161.2,48.011Z" transform="translate(53.438 14.58)" fill="#dedede"/>
          <rect id="Rectangle_36" data-name="Rectangle 36" width="3.861" height="4.142" transform="translate(222.845 80.945)" fill="#dedede"/>
          <path id="Path_121-2" data-name="Path 121" d="M189.433,65V48.739c0-2.775-3.284-6.059-7.628-6.059s-7.655,3.284-7.655,6.059V65c0,2.775,3.284,6.046,7.655,6.046a8.325,8.325,0,0,0,4.209-1.126,3.754,3.754,0,0,0,2.6,1.126,3.218,3.218,0,0,0,2.078-.509V67.052c-1.005,0-1.341-.134-1.622-.429A4.156,4.156,0,0,0,189.433,65Zm-6.354-2.158-1.341,1.8.858.818a1.421,1.421,0,0,1-.751.228,1.193,1.193,0,0,1-1.341-1.166V49.209a1.341,1.341,0,0,1,2.574,0Z" transform="translate(59.313 14.536)" fill="#dedede"/>
          <path id="Path_122-2" data-name="Path 122" d="M196.705,43.06V64.429a1.3,1.3,0,0,1-2.6,0V43.06H187.75V65.22c0,2.762,3.271,5.7,7.655,5.7s7.306-2.936,7.306-5.7V43.06Z" transform="translate(63.945 14.666)" fill="#dedede"/>
          <path id="Path_123-2" data-name="Path 123" d="M204.549,43.06,200.42,70.408h5.563l.483-3.928h3.043l.308,3.928h6.488L212.07,43.06Zm2.681,17.883,1.086-8.647L209,60.943Z" transform="translate(68.26 14.666)" fill="#dedede"/>
          <path id="Path_124-2" data-name="Path 124" d="M220.117,43.06H213.83V70.408H226.2V65.046h-6.086Z" transform="translate(72.827 14.666)" fill="#dedede"/>
          <rect id="Rectangle_37-2" data-name="Rectangle 37" width="6.328" height="27.348" transform="translate(301.994 57.726)" fill="#dedede"/>
          <path id="Path_125-2" data-name="Path 125" d="M232.2,47.926h4.344V70.408h6.287V47.926H247V43.06H232.2Z" transform="translate(79.084 14.666)" fill="#dedede"/>
          <path id="Path_126-2" data-name="Path 126" d="M255.306,43.06l-2.225,9.129-2.493-9.129H244.26l5.268,15.564V70.408h6.354V58.624l5.429-15.564Z" transform="translate(83.191 14.666)" fill="#dedede"/>
          <rect id="Rectangle_38" data-name="Rectangle 38" width="5.51" height="5.577" transform="translate(343.069 79.51)" fill="#dedede"/>
        </g>
      </g>
    </g>
    <!-- <g id="Email_MOB" data-name="Email MOB" transform="translate(12.874 703.31)">
      <path id="Path_136" data-name="Path 136" d="M-161.161-39.2h-5.831V-6.615a1.161,1.161,0,0,1-1.176,1.176,1.192,1.192,0,0,1-1.176-1.176v-9.359h-5.782v9.261a7.009,7.009,0,0,0,6.958,7.2,7.019,7.019,0,0,0,7.007-7.2Zm7.4,32.585h2.744L-150.675,0h6.174l-4.067-39.2h-7.2L-159.74,0h5.439Zm2.4-5.978h-1.911l1.127-13.377ZM-120-39.2h-9.016l-2.352,18.375L-133.574-39.2h-9.408V0h5.439V-26.46L-133.966,0H-130l3.969-26.46V0H-120Zm14.553,0h-11.907V0h11.907V-5.978h-5.831V-17.346h3.822v-5.978h-3.822V-33.712h5.831ZM-89.425-8.575c0-3.773-2.6-8.036-4.851-12.25-2.5-4.7-3.822-7.448-3.822-11.417a1.637,1.637,0,0,1,1.617-1.764c.784,0,1.323.588,1.323,1.764v5.488h5.537v-5.733a6.929,6.929,0,0,0-6.86-7.2c-4.851,0-7.4,3.724-7.4,9.065,0,4.018,2.205,8.477,4.361,12.495,2.107,3.822,4.312,7.2,4.312,10.829,0,1.323-.539,2.107-1.715,2.107A1.914,1.914,0,0,1-98.735-7.3v-5.145h-5.537v5.733c0,3.969,3.038,7.2,7.644,7.2S-89.425-3.577-89.425-8.575Zm32.291,5.243-2.352-3.479a16.476,16.476,0,0,1-8.869,2.548c-7.791,0-13.818-6.713-13.818-15.337,0-8.477,6.223-15.337,13.818-15.337,7.644,0,13.181,6.517,13.181,12.348,0,5.978-2.548,9.114-5.39,9.114-1.47,0-2.3-1.029-2.009-3.185L-60.662-29.2H-66.2l-.2,1.274a3.666,3.666,0,0,0-3.234-1.764,5.325,5.325,0,0,0-5.047,4.361l-1.715,11.417a3.663,3.663,0,0,0,3.724,4.41,6.174,6.174,0,0,0,4.949-2.842c.49,1.568,1.96,3.185,5.929,3.185,5.929,0,11.368-4.655,11.368-13.573,0-8.771-7.889-16.954-17.934-16.954-10.535,0-19.061,8.967-19.061,20.09C-87.416-8.526-78.89.49-68.355.49A18.363,18.363,0,0,0-57.134-3.332Zm-9.9-20.237-1.225,7.938a1.374,1.374,0,0,1-1.372,1.176.966.966,0,0,1-.98-1.176l1.225-7.938a1.374,1.374,0,0,1,1.372-1.176A.966.966,0,0,1-67.032-23.569ZM-34.251-39.2h-5.831V-6.615a1.161,1.161,0,0,1-1.176,1.176,1.192,1.192,0,0,1-1.176-1.176v-9.359h-5.782v9.261A7.009,7.009,0,0,0-41.258.49a7.019,7.019,0,0,0,7.007-7.2Zm9.065,22.883L-27.048-39.2h-5.978l4.9,39.2h5.586l4.949-39.2h-5.488ZM-16.415-39.2V0h7.4C-6.125,0-2.6-1.666-2.6-6.664v-9.212c0-1.862-1.029-3.038-2.548-4.067,1.519-1.029,2.548-2.2,2.548-4.067v-8.526c0-5-3.528-6.664-6.419-6.664Zm6.027,33.271V-16.856h.882c.637,0,1.029.441,1.029,1.568V-7.5c0,1.127-.392,1.568-1.029,1.568Zm0-16.856V-33.222h.882c.637,0,1.029.441,1.029,1.568v7.3c0,1.127-.392,1.568-1.029,1.568ZM5.341-39.2H-.441V-6.713A7.009,7.009,0,0,0,6.517.49c4.018,0,6.713-3.234,6.713-7.2V-39.2H7.693V-6.86A1.161,1.161,0,0,1,6.517-5.684,1.192,1.192,0,0,1,5.341-6.86ZM21.952,0V-39.2H15.925V0Zm8.82-39.2H24.745V0H36.652V-5.978h-5.88Zm7.938,0V0H46.6c2.891,0,6.174-1.666,6.174-6.664V-32.536c0-5-3.283-6.664-6.174-6.664ZM44.737-5.929V-33.222H46.06c.686,0,1.078.441,1.078,1.568V-7.5c0,1.127-.392,1.568-1.078,1.568Zm24.3-2.646c0-3.773-2.6-8.036-4.851-12.25-2.5-4.7-3.822-7.448-3.822-11.417a1.637,1.637,0,0,1,1.617-1.764c.784,0,1.323.588,1.323,1.764v5.488h5.537v-5.733a6.929,6.929,0,0,0-6.86-7.2c-4.851,0-7.4,3.724-7.4,9.065,0,4.018,2.2,8.477,4.361,12.495,2.107,3.822,4.312,7.2,4.312,10.829,0,1.323-.539,2.107-1.715,2.107A1.914,1.914,0,0,1,59.731-7.3v-5.145H54.194v5.733c0,3.969,3.038,7.2,7.644,7.2S69.041-3.577,69.041-8.575ZM70.9,0H76.44V-5.929H70.9ZM84.672-6.86V-32.34a1.192,1.192,0,0,1,1.176-1.176,1.192,1.192,0,0,1,1.176,1.176v7.889h5.782v-8.036a7.009,7.009,0,0,0-6.958-7.2,7.009,7.009,0,0,0-6.958,7.2V-6.713A7.009,7.009,0,0,0,85.848.49a7.009,7.009,0,0,0,6.958-7.2v-8.036H87.024V-6.86a1.192,1.192,0,0,1-1.176,1.176A1.192,1.192,0,0,1,84.672-6.86Zm24.5.147V-32.487a7.215,7.215,0,0,0-7.2-7.2,7.215,7.215,0,0,0-7.2,7.2V-6.713a7.215,7.215,0,0,0,7.2,7.2A7.215,7.215,0,0,0,109.172-6.713ZM103.145-32.34V-6.86a1.192,1.192,0,0,1-1.176,1.176,1.192,1.192,0,0,1-1.176-1.176V-32.34a1.192,1.192,0,0,1,1.176-1.176A1.192,1.192,0,0,1,103.145-32.34ZM134.6-39.2h-9.016l-2.352,18.375L121.03-39.2h-9.408V0h5.439V-26.46L120.638,0h3.969l3.969-26.46V0H134.6ZM137.249,0h5.537V-5.929h-5.537Zm13.034-6.615h2.744L153.37,0h6.174l-4.067-39.2h-7.2L144.3,0h5.439Zm2.4-5.978h-1.911L151.9-25.97ZM166.747-39.2h-5.782V-6.713a7.009,7.009,0,0,0,6.958,7.2c4.018,0,6.713-3.234,6.713-7.2V-39.2H169.1V-6.86a1.161,1.161,0,0,1-1.176,1.176,1.192,1.192,0,0,1-1.176-1.176Z" transform="translate(175.126 39.69)" fill="#9b9b9b"/>
    </g> -->
  </g>
</svg>
